<?xml version="1.0" encoding="UTF-8"?>
<!DOCTYPE svg PUBLIC "-//W3C//DTD SVG 1.1//EN" "http://www.w3.org/Graphics/SVG/1.1/DTD/svg11.dtd">
<!-- Creator: CorelDRAW -->
<svg xmlns="http://www.w3.org/2000/svg" xml:space="preserve" width="6.82666in" height="6.82666in" style="shape-rendering:geometricPrecision; text-rendering:geometricPrecision; image-rendering:optimizeQuality; fill-rule:evenodd; clip-rule:evenodd"
viewBox="0 0 6.82666 6.82666"
 xmlns:xlink="http://www.w3.org/1999/xlink">
 <defs>
  <style type="text/css">
   <![CDATA[
    .fil2 {fill:none}
    .fil1 {fill:#880E4F}
    .fil0 {fill:#C2185B}
    .fil3 {fill:#E46315;fill-rule:nonzero}
    .fil5 {fill:#ED6513;fill-rule:nonzero}
    .fil6 {fill:#FB8C00;fill-rule:nonzero}
    .fil7 {fill:#FF9A28;fill-rule:nonzero}
    .fil4 {fill:#FFA726;fill-rule:nonzero}
   ]]>
  </style>
   <clipPath id="id0">
    <path d="M3.41333 0c1.88513,0 3.41333,1.5282 3.41333,3.41333 0,1.88513 -1.5282,3.41333 -3.41333,3.41333 -1.88513,0 -3.41333,-1.5282 -3.41333,-3.41333 0,-1.88513 1.5282,-3.41333 3.41333,-3.41333z"/>
   </clipPath>
 </defs>
 <g id="Layer_x0020_1">
  <metadata id="CorelCorpID_0Corel-Layer"/>
  <path class="fil0" d="M3.41333 0c1.88513,0 3.41333,1.5282 3.41333,3.41333 0,1.88513 -1.5282,3.41333 -3.41333,3.41333 -1.88513,0 -3.41333,-1.5282 -3.41333,-3.41333 0,-1.88513 1.5282,-3.41333 3.41333,-3.41333z"/>
  <g style="clip-path:url(#id0)">
   <g id="_328324896">
    <g>
     <polygon id="_3305443761" class="fil1" points="5.275,2.43761 9.06127,6.22389 9.06127,6.41497 5.275,2.6287 "/>
     <polygon id="_330544448" class="fil1" points="5.275,2.6287 9.06127,6.41497 9.06127,6.65643 5.275,2.87015 "/>
     <polygon id="_330545048" class="fil1" points="5.275,2.87015 9.06127,6.65643 9.06127,6.89788 5.275,3.11161 "/>
     <polygon id="_330545600" class="fil1" points="5.275,3.11161 9.06127,6.89788 9.06127,7.13934 5.275,3.35307 "/>
     <polygon id="_330545624" class="fil1" points="5.275,3.35307 9.06127,7.13934 9.06127,7.3808 5.275,3.59453 "/>
     <polygon id="_330546272" class="fil1" points="4.49753,3.02932 8.2838,6.81559 7.61502,6.81559 3.82875,3.02932 "/>
     <polygon id="_330546032" class="fil1" points="2.94258,2.43761 6.72885,6.22389 6.72885,6.41497 2.94258,2.6287 "/>
     <polygon id="_330545936" class="fil1" points="2.94258,2.6287 6.72885,6.41497 6.72885,6.65643 2.94258,2.87015 "/>
     <polygon id="_330545960" class="fil1" points="2.94258,2.87015 6.72885,6.65643 6.72885,6.89788 2.94258,3.11161 "/>
     <polygon id="_330546176" class="fil1" points="4.49753,3.22283 8.2838,7.0091 8.2838,8.34312 4.49753,4.55685 "/>
     <polygon id="_330546464" class="fil1" points="5.275,4.56036 9.06127,8.34663 9.06127,8.5342 5.275,4.74793 "/>
     <polygon id="_330546248" class="fil1" points="1.54897,4.56036 5.33524,8.34663 5.32794,8.34663 1.54167,4.56036 "/>
     <polygon id="_330546392" class="fil1" points="2.16511,3.60218 5.95138,7.38845 5.95138,7.54815 2.16511,3.76188 "/>
     <polygon id="_330546488" class="fil1" points="2.16511,3.76188 5.95138,7.54815 5.95138,7.70784 2.16511,3.92157 "/>
     <polygon id="_330545792" class="fil1" points="2.16511,3.92157 5.95138,7.70784 5.95138,7.86754 2.16511,4.08127 "/>
     <polygon id="_330546776" class="fil1" points="2.16511,4.08127 5.95138,7.86754 5.95138,8.02724 2.16511,4.24097 "/>
     <polygon id="_330546704" class="fil1" points="2.16511,4.24097 5.95138,8.02724 5.95138,8.18693 2.16511,4.40066 "/>
     <polygon id="_330546656" class="fil1" points="2.16511,4.40066 5.95138,8.18693 5.95138,8.34312 2.16511,4.55685 "/>
     <polygon id="_330546896" class="fil1" points="2.94258,3.11161 6.72885,6.89788 6.72885,7.13934 2.94258,3.35307 "/>
     <polygon id="_330547232" class="fil1" points="5.275,4.07744 9.06127,7.86371 9.06127,8.10517 5.275,4.3189 "/>
     <polygon id="_330547256" class="fil1" points="5.275,4.3189 9.06127,8.10517 9.06127,8.34312 5.275,4.55685 "/>
     <polygon id="_330546992" class="fil1" points="5.275,4.55685 9.06127,8.34312 9.06127,8.34663 5.275,4.56036 "/>
     <polygon id="_330546584" class="fil1" points="2.94258,3.35307 6.72885,7.13934 6.72885,7.3808 2.94258,3.59453 "/>
     <polygon id="_330547112" class="fil1" points="2.94258,3.59453 6.72885,7.3808 6.72885,7.62226 2.94258,3.83598 "/>
     <polygon id="_330547376" class="fil1" points="2.94258,3.83598 6.72885,7.62226 6.72885,7.86371 2.94258,4.07744 "/>
     <polygon id="_330547616" class="fil1" points="2.94258,4.07744 6.72885,7.86371 6.72885,8.10517 2.94258,4.3189 "/>
     <polygon id="_330547856" class="fil1" points="2.94258,4.3189 6.72885,8.10517 6.72885,8.34312 2.94258,4.55685 "/>
     <polygon id="_330547808" class="fil1" points="3.72006,3.95892 7.50632,7.74519 7.50632,7.93628 3.72006,4.15 "/>
     <polygon id="_330547352" class="fil1" points="3.72006,4.15 7.50632,7.93628 7.50632,8.34312 3.72006,4.55685 "/>
     <polygon id="_330547592" class="fil1" points="5.275,4.74793 9.06127,8.5342 5.33524,8.5342 1.54897,4.74793 "/>
     <polygon id="_330547904" class="fil1" points="4.49753,2.83823 8.2838,6.6245 8.2838,6.81559 4.49753,3.02932 "/>
     <polygon id="_330547952" class="fil1" points="4.49753,3.03174 8.2838,6.81801 8.2838,7.0091 4.49753,3.22283 "/>
     <polygon id="_330548072" class="fil1" points="5.275,3.59453 9.06127,7.3808 9.06127,7.62226 5.275,3.83598 "/>
     <polygon id="_330547520" class="fil1" points="5.275,3.83598 9.06127,7.62226 9.06127,7.86371 5.275,4.07744 "/>
    </g>
    <path id="_328325088" class="fil1" d="M4.60622 2.43761l0.66878 0 0 0.191083 0 0.241457 0 0.241457 0 0.241457 0 0.241461 0 0.241457 0 0.241457 0 0.241457 0 0.237949 0 0.00351181 0 0.187571 -3.72604 0 0 -0.187571 -0.00729921 0 0 -0.159693 0 -0.159697 0 -0.159701 0 -0.159697 0 -0.159697 0 -0.159697 0.623441 0 0 0.159701 0 0.159693 0 0.159701 0 0.159697 0 0.159693 0 0.156185 0.108693 0 0 -0.237949 0 -0.241457 0 -0.241457 0 -0.241457 0 -0.241461 0 -0.241457 0 -0.241457 0 -0.241457 0 -0.191083 0.66878 0 0 0.191083 0 0.241457 0 0.241457 0 0.241457 0 0.241461 0 0.241457 0 0.241457 0 0.241457 0 0.237949 0.108697 0 0 -0.406843 0 -0.191083 0.668776 0 0 0.191083 0 0.406843 0.108697 0 0 -1.33402 0 -0.191087 0.66878 0 0 0.191087 0 1.33402 0.108693 0 0 -0.237949 0 -0.241457 0 -0.241457 0 -0.241457 0 -0.241461 0 -0.241457 0 -0.241457 0 -0.241457 0 -0.191083zm-0.777472 0.400618l0.66878 0 0 0.191087 -0.66878 0 0 -0.191087z"/>
   </g>
  </g>
  <path class="fil2" d="M3.41333 0c1.88513,0 3.41333,1.5282 3.41333,3.41333 0,1.88513 -1.5282,3.41333 -3.41333,3.41333 -1.88513,0 -3.41333,-1.5282 -3.41333,-3.41333 0,-1.88513 1.5282,-3.41333 3.41333,-3.41333z"/>
  <polygon class="fil3" points="1.54897,4.55685 5.275,4.55685 5.275,4.74793 1.54897,4.74793 "/>
  <polygon class="fil4" points="3.82875,2.83823 4.49753,2.83823 4.49753,3.02932 3.82875,3.02932 "/>
  <polygon class="fil5" points="3.82875,3.03174 4.49753,3.03174 4.49753,3.22283 3.82875,3.22283 "/>
  <polygon class="fil6" points="3.82875,3.22283 4.49753,3.22283 4.49753,4.56036 3.82875,4.56036 "/>
  <polygon class="fil5" points="3.05128,3.95892 3.72006,3.95892 3.72006,4.15 3.05128,4.15 "/>
  <polygon class="fil4" points="3.05128,4.15 3.72006,4.15 3.72006,4.56036 3.05128,4.56036 "/>
  <polygon class="fil5" points="2.2738,2.43761 2.94258,2.43761 2.94258,2.6287 2.2738,2.6287 "/>
  <polygon class="fil7" points="2.2738,4.3189 2.94258,4.3189 2.94258,4.56036 2.2738,4.56036 "/>
  <polygon class="fil4" points="2.2738,4.3189 2.94258,4.3189 2.94258,4.07744 2.2738,4.07744 "/>
  <polygon class="fil6" points="2.2738,3.83598 2.94258,3.83598 2.94258,4.07744 2.2738,4.07744 "/>
  <polygon class="fil4" points="2.2738,3.83598 2.94258,3.83598 2.94258,3.59453 2.2738,3.59453 "/>
  <polygon class="fil6" points="2.2738,3.35307 2.94258,3.35307 2.94258,3.59453 2.2738,3.59453 "/>
  <polygon class="fil7" points="2.2738,3.35307 2.94258,3.35307 2.94258,3.11161 2.2738,3.11161 "/>
  <polygon class="fil6" points="2.2738,2.87015 2.94258,2.87015 2.94258,3.11161 2.2738,3.11161 "/>
  <polygon class="fil7" points="2.2738,2.87015 2.94258,2.87015 2.94258,2.6287 2.2738,2.6287 "/>
  <polygon class="fil7" points="1.54167,4.40066 2.16511,4.40066 2.16511,4.56036 1.54167,4.56036 "/>
  <polygon class="fil6" points="1.54167,4.40067 2.16511,4.40067 2.16511,4.24097 1.54167,4.24097 "/>
  <polygon class="fil7" points="1.54167,4.08127 2.16511,4.08127 2.16511,4.24097 1.54167,4.24097 "/>
  <polygon class="fil6" points="1.54167,4.08127 2.16511,4.08127 2.16511,3.92157 1.54167,3.92157 "/>
  <polygon class="fil7" points="1.54167,3.76188 2.16511,3.76188 2.16511,3.92157 1.54167,3.92157 "/>
  <polygon class="fil5" points="1.54167,3.76187 2.16511,3.76187 2.16511,3.60218 1.54167,3.60218 "/>
  <polygon class="fil5" points="4.60622,2.43761 5.275,2.43761 5.275,2.6287 4.60622,2.6287 "/>
  <polygon class="fil7" points="4.60622,4.3189 5.275,4.3189 5.275,4.56036 4.60622,4.56036 "/>
  <polygon class="fil4" points="4.60622,4.3189 5.275,4.3189 5.275,4.07744 4.60622,4.07744 "/>
  <polygon class="fil6" points="4.60622,3.83598 5.275,3.83598 5.275,4.07744 4.60622,4.07744 "/>
  <polygon class="fil4" points="4.60622,3.83598 5.275,3.83598 5.275,3.59453 4.60622,3.59453 "/>
  <polygon class="fil6" points="4.60622,3.35307 5.275,3.35307 5.275,3.59453 4.60622,3.59453 "/>
  <polygon class="fil7" points="4.60622,3.35307 5.275,3.35307 5.275,3.11161 4.60622,3.11161 "/>
  <polygon class="fil6" points="4.60622,2.87015 5.275,2.87015 5.275,3.11161 4.60622,3.11161 "/>
  <polygon class="fil7" points="4.60622,2.87015 5.275,2.87015 5.275,2.6287 4.60622,2.6287 "/>
 </g>
</svg>
